<svg width="110" height="77" viewBox="0 0 110 77" fill="none" xmlns="http://www.w3.org/2000/svg">
<path d="M75.536 50.96C75.536 50.56 75.68 50.216 75.968 49.928C76.256 49.64 76.6 49.496 77 49.496C77.4 49.496 77.736 49.64 78.008 49.928C78.296 50.216 78.44 50.56 78.44 50.96C78.44 51.36 78.296 51.704 78.008 51.992C77.736 52.28 77.4 52.424 77 52.424C76.6 52.424 76.256 52.28 75.968 51.992C75.68 51.704 75.536 51.36 75.536 50.96ZM91.136 44.744L89.072 36.488L86.96 44.744H91.136ZM94.424 50.696C94.504 50.92 94.432 51.032 94.208 51.032H93.08C92.984 51.032 92.896 51.016 92.816 50.984C92.752 50.952 92.688 50.856 92.624 50.696L91.472 46.28H86.576L85.352 50.696C85.288 50.856 85.216 50.952 85.136 50.984C85.072 51.016 84.992 51.032 84.896 51.032H83.768C83.544 51.032 83.472 50.92 83.552 50.696L87.968 34.952C88.048 34.76 88.192 34.664 88.4 34.664H89.864C90.072 34.664 90.216 34.76 90.296 34.952L94.424 50.696ZM97.376 50.696V49.88C97.376 49.656 97.488 49.544 97.712 49.544H100.088V36.152H97.952C97.728 36.152 97.616 36.04 97.616 35.816V35C97.616 34.776 97.728 34.664 97.952 34.664H104.048C104.272 34.664 104.384 34.776 104.384 35V35.816C104.384 36.04 104.272 36.152 104.048 36.152H101.912V49.544H104.288C104.512 49.544 104.624 49.656 104.624 49.88V50.696C104.624 50.92 104.512 51.032 104.288 51.032H97.712C97.488 51.032 97.376 50.92 97.376 50.696Z" fill="#4B5563"/>
<path d="M5.504 53.32C4.30933 53.32 3.41333 52.9787 2.816 52.296C2.26133 51.5707 1.984 50.6747 1.984 49.608C1.984 48.4133 2.32533 47.0267 3.008 45.448C3.73333 43.8267 4.672 42.1627 5.824 40.456C6.976 38.7493 8.23467 37.1707 9.6 35.72C11.008 34.2267 12.416 33.032 13.824 32.136C15.232 31.1973 16.5333 30.728 17.728 30.728C18.5813 30.728 19.4133 30.8773 20.224 31.176C21.0773 31.432 21.7173 31.9867 22.144 32.84C23.2107 30.3653 24.4907 27.912 25.984 25.48C27.4773 23.0053 29.0133 20.7867 30.592 18.824C32.2133 16.8613 33.7493 15.3893 35.2 14.408C36.2667 13.6827 37.2267 13.32 38.08 13.32C38.7627 13.32 39.296 13.5547 39.68 14.024C40.1067 14.4507 40.32 15.112 40.32 16.008C40.32 17.7147 39.8507 19.528 38.912 21.448C38.016 23.368 36.8213 25.288 35.328 27.208C33.8347 29.128 32.2133 31.0053 30.464 32.84C28.7573 34.632 27.0933 36.3173 25.472 37.896C23.8507 39.432 22.4427 40.776 21.248 41.928C20.5653 43.08 19.904 44.424 19.264 45.96C18.6667 47.4533 18.368 48.712 18.368 49.736C18.368 50.888 18.816 51.464 19.712 51.464C20.4373 51.464 21.5253 51.1227 22.976 50.44C24.4693 49.7147 25.92 48.7333 27.328 47.496C28.1813 46.7707 28.9707 46.0027 29.696 45.192C30.4213 44.3813 31.104 43.6347 31.744 42.952C31.9147 42.7387 32.128 42.632 32.384 42.632C32.5973 42.632 32.7893 42.76 32.96 43.016C33.1733 43.2293 33.28 43.5067 33.28 43.848C33.28 44.232 33.1733 44.552 32.96 44.808C32.32 45.704 31.424 46.7067 30.272 47.816C29.1627 48.8827 28.1813 49.736 27.328 50.376C25.7067 51.5707 23.9573 52.4667 22.08 53.064C20.928 53.448 19.904 53.64 19.008 53.64C16.6613 53.64 15.488 52.4667 15.488 50.12C15.488 49.1387 15.7013 48.0293 16.128 46.792C16.128 46.7493 16.1493 46.7067 16.192 46.664C14.8693 47.7733 13.504 48.84 12.096 49.864C10.7307 50.888 9.45067 51.72 8.256 52.36C7.06133 53 6.144 53.32 5.504 53.32ZM22.272 37.576C22.6987 37.2347 23.4453 36.552 24.512 35.528C25.5787 34.504 26.7947 33.288 28.16 31.88C29.568 30.4293 30.9547 28.872 32.32 27.208C33.6853 25.544 34.88 23.88 35.904 22.216C36.928 20.552 37.632 18.9947 38.016 17.544C38.0587 17.3733 38.08 17.16 38.08 16.904C38.08 16.264 37.824 15.944 37.312 15.944C36.672 15.944 35.9253 16.3707 35.072 17.224C33.408 18.8453 31.7867 20.808 30.208 23.112C28.672 25.3733 27.2213 27.7627 25.856 30.28C24.5333 32.7547 23.3387 35.1867 22.272 37.576ZM5.312 51.208C5.90933 51.208 6.67733 50.9307 7.616 50.376C8.59733 49.8213 9.64267 49.1173 10.752 48.264C11.8613 47.4107 12.9493 46.5147 14.016 45.576C15.1253 44.6373 16.1067 43.7627 16.96 42.952C17.8133 42.1413 18.4533 41.5227 18.88 41.096L20.8 35.656C20.5013 34.5467 20.0533 33.8213 19.456 33.48C18.8587 33.1387 18.2827 32.968 17.728 32.968C16.8747 32.968 15.872 33.3947 14.72 34.248C13.568 35.1013 12.3947 36.1893 11.2 37.512C10.0053 38.8347 8.87467 40.264 7.808 41.8C6.784 43.2933 5.952 44.744 5.312 46.152C4.672 47.5173 4.352 48.648 4.352 49.544C4.352 49.9707 4.416 50.3547 4.544 50.696C4.71467 51.0373 4.97067 51.208 5.312 51.208ZM34.4805 54.088C33.0298 54.088 32.0058 53.6827 31.4085 52.872C30.8112 52.0187 30.5125 50.9733 30.5125 49.736C30.5125 48.712 30.6618 47.6027 30.9605 46.408C31.3018 45.1707 31.7285 43.9547 32.2405 42.76C32.2832 41.096 32.7312 39.4533 33.5845 37.832C34.4805 36.2107 35.6752 34.8667 37.1685 33.8C38.7045 32.7333 40.4965 32.2 42.5445 32.2C44.5498 32.2 45.9365 32.776 46.7045 33.928C47.5152 35.08 47.9205 36.4453 47.9205 38.024C47.9205 38.9627 47.8138 39.9227 47.6005 40.904C47.3872 41.8427 47.1098 42.7387 46.7685 43.592C46.4272 44.4453 46.0005 45.32 45.4885 46.216C44.9765 47.0693 44.4005 47.9227 43.7605 48.776C45.0405 48.5627 46.1498 48.1573 47.0885 47.56C48.0698 46.92 49.0512 46.0453 50.0325 44.936C51.0138 43.8267 52.1658 42.4187 53.4885 40.712C53.7445 40.4133 54.0218 40.264 54.3205 40.264C54.6618 40.264 54.9392 40.3707 55.1525 40.584C55.4085 40.7973 55.5365 41.0747 55.5365 41.416C55.5365 41.672 55.4512 41.9067 55.2805 42.12C54.0432 43.8267 52.7845 45.3627 51.5045 46.728C50.2672 48.0933 48.8592 49.16 47.2805 49.928C45.7018 50.696 43.8032 51.08 41.5845 51.08C40.5605 51.976 39.4512 52.7013 38.2565 53.256C37.0618 53.8107 35.8032 54.088 34.4805 54.088ZM38.1925 37.512C37.6805 37.896 37.0618 38.664 36.3365 39.816C35.6112 40.968 34.9498 42.2267 34.3525 43.592C34.4378 44.9147 34.9712 46.1093 35.9525 47.176C36.9765 48.2 38.5338 48.776 40.6245 48.904C42.1605 47.4107 43.3978 45.6613 44.3365 43.656C45.2752 41.608 45.7445 39.7733 45.7445 38.152C45.7445 37.0427 45.4885 36.1467 44.9765 35.464C44.4645 34.7813 43.6538 34.44 42.5445 34.44C41.7765 34.44 41.0298 34.568 40.3045 34.824C39.5792 35.08 38.9178 35.4213 38.3205 35.848C38.5338 36.0613 38.6405 36.3173 38.6405 36.616C38.6405 36.9573 38.4912 37.256 38.1925 37.512ZM32.7525 49.608C32.7525 50.2907 32.8805 50.8453 33.1365 51.272C33.4352 51.656 33.8832 51.848 34.4805 51.848C35.7178 51.848 36.9765 51.464 38.2565 50.696C37.0192 50.3973 35.9738 49.928 35.1205 49.288C34.2672 48.6053 33.6058 47.8373 33.1365 46.984C32.8805 48.008 32.7525 48.8827 32.7525 49.608ZM56.009 53.448C54.217 53.448 52.8517 53 51.913 52.104C51.017 51.208 50.569 50.056 50.569 48.648C50.569 47.0267 50.889 45.4907 51.529 44.04C52.2117 42.5893 52.9797 41.2453 53.833 40.008C55.0703 38.216 56.5423 36.7013 58.249 35.464C59.9983 34.184 61.8117 33.544 63.689 33.544C64.9263 33.544 65.7797 33.8427 66.249 34.44C66.7183 34.9947 66.953 35.6987 66.953 36.552C66.953 37.448 66.761 38.3867 66.377 39.368C65.993 40.3067 65.5663 41.0533 65.097 41.608C64.7983 41.9493 64.4783 42.12 64.137 42.12C63.4543 42.12 63.113 41.8213 63.113 41.224C63.113 40.9253 63.241 40.648 63.497 40.392C63.7103 40.1787 63.9663 39.688 64.265 38.92C64.6063 38.1093 64.777 37.4053 64.777 36.808C64.777 36.2107 64.585 35.8907 64.201 35.848C64.073 35.8053 63.9023 35.784 63.689 35.784C62.8357 35.784 61.8757 36.1253 60.809 36.808C59.7423 37.448 58.7183 38.3013 57.737 39.368C56.7557 40.4347 55.9237 41.5653 55.241 42.76C54.6863 43.6987 54.2383 44.7013 53.897 45.768C53.5557 46.8347 53.385 47.752 53.385 48.52C53.385 49.3307 53.6197 49.9707 54.089 50.44C54.601 50.9093 55.3263 51.144 56.265 51.144C57.7583 51.144 59.3157 50.7387 60.937 49.928C62.601 49.1173 63.945 48.2853 64.969 47.432C65.8223 46.7067 66.6117 45.96 67.337 45.192C68.0623 44.3813 68.745 43.6347 69.385 42.952C69.5557 42.7387 69.769 42.632 70.025 42.632C70.2383 42.632 70.4303 42.76 70.601 43.016C70.8143 43.2293 70.921 43.5067 70.921 43.848C70.921 44.232 70.8143 44.552 70.601 44.808C69.9183 45.704 69.0223 46.7067 67.913 47.816C66.8037 48.8827 65.8223 49.736 64.969 50.376C63.7743 51.2293 62.345 51.9547 60.681 52.552C59.017 53.1493 57.4597 53.448 56.009 53.448Z" fill="#65A30D"/>
</svg>
